<?xml version="1.0" encoding="UTF-8"?>
<svg version="1.1" xmlns="http://www.w3.org/2000/svg" width="557" height="686">
<path d="M0 0 C2.54495488 2.25981298 3.73121759 4.2828544 4.97021484 7.43847656 C5.50831284 8.79135017 5.50831284 8.79135017 6.05728149 10.17155457 C6.43798798 11.15134781 6.81869446 12.13114105 7.2109375 13.140625 C7.81740616 14.67297539 7.81740616 14.67297539 8.43612671 16.23628235 C9.30386295 18.43034791 10.16826074 20.62573614 11.02966309 22.82229614 C13.28546616 28.56972256 15.5709421 34.30535619 17.8515625 40.04296875 C18.30088135 41.17536484 18.7502002 42.30776093 19.21313477 43.47447205 C47.25874629 114.14096328 83.48334117 179.58532268 135 236 C135.85207031 236.94488281 136.70414062 237.88976562 137.58203125 238.86328125 C145.84330799 247.99707052 154.30363925 257.0502948 163.6953125 265.0390625 C165.60304741 266.66225389 167.48819156 268.30482082 169.3671875 269.9609375 C177.34147155 276.97182245 185.43675474 283.71612795 194 290 C194.92256592 290.67748291 194.92256592 290.67748291 195.86376953 291.36865234 C207.88711673 300.13887084 220.39981964 308.0915684 233 316 C234.71133288 317.07880014 236.42228296 318.1582078 238.1328125 319.23828125 C238.9465332 319.75205322 239.76025391 320.2658252 240.59863281 320.79516602 C242.17906959 321.79378482 243.75915734 322.79295626 245.33886719 323.79272461 C248.96960139 326.09014054 252.6052819 328.37799543 256.2578125 330.640625 C257.54696634 331.4477708 258.83603416 332.25505401 260.125 333.0625 C261.24132812 333.75472656 262.35765625 334.44695312 263.5078125 335.16015625 C266 337 266 337 267 340 C265.92105469 340.65484375 264.84210937 341.3096875 263.73046875 341.984375 C254.02450494 347.88811537 244.37868419 353.87791215 234.7890625 359.96875 C231.60806473 361.98818392 228.41537434 363.98673195 225.2109375 365.96875 C208.22288075 376.50731565 192.32474334 388.16998232 177 401 C176.41299316 401.48791016 175.82598633 401.97582031 175.22119141 402.47851562 C138.81354612 432.80283219 107.65700294 469.21434303 82 509 C81.54447754 509.69996094 81.08895508 510.39992188 80.61962891 511.12109375 C55.96355561 549.07660462 36.77000113 589.63496278 19.98312378 631.56132507 C16.54111438 640.15657227 13.0595159 648.73565196 9.57653809 657.31436157 C7.96761712 661.2780266 6.36081212 665.24254896 4.75390625 669.20703125 C4.21558672 670.53491638 3.67725781 671.86279772 3.13891602 673.19067383 C2.76307373 674.11775146 2.38723145 675.0448291 2 676 C1.01 676 0.02 676 -1 676 C-1.42744507 674.92745972 -1.42744507 674.92745972 -1.86352539 673.83325195 C-5.25896861 665.31811176 -8.66625502 656.80776306 -12.07843018 648.29931641 C-13.00232226 645.99420597 -13.92485822 643.68855646 -14.84716797 641.3828125 C-30.49263547 602.29310646 -47.11670529 564.0561176 -69 528 C-69.54366211 527.09459473 -70.08732422 526.18918945 -70.64746094 525.25634766 C-84.66588452 501.93019599 -100.49064309 479.83733399 -118 459 C-118.42539063 458.48969238 -118.85078125 457.97938477 -119.2890625 457.45361328 C-132.61613164 441.49444799 -146.824782 425.47266531 -162.6875 411.9765625 C-164.52183354 410.40870309 -166.32711383 408.81985345 -168.125 407.2109375 C-193.3634665 384.7584673 -222.06463626 367.0565654 -250.69970703 349.32861328 C-253.13990363 347.81288021 -255.57100441 346.28359707 -258 344.75 C-259.07785767 344.08713989 -259.07785767 344.08713989 -260.17749023 343.41088867 C-261.83873483 342.35399807 -263.42895046 341.18682546 -265 340 C-265 339.01 -265 338.02 -265 337 C-263.36132813 335.61230469 -263.36132813 335.61230469 -261.03125 334.171875 C-260.16185791 333.62692383 -259.29246582 333.08197266 -258.39672852 332.52050781 C-257.44080811 331.93624023 -256.4848877 331.35197266 -255.5 330.75 C-254.51765381 330.13737305 -253.53530762 329.52474609 -252.52319336 328.89355469 C-249.35459275 326.91953278 -246.17742811 324.95977425 -243 323 C-238.85093495 320.42184044 -234.7061492 317.83685351 -230.5625 315.25 C-229.54712158 314.61618408 -228.53174316 313.98236816 -227.4855957 313.3293457 C-207.60291736 300.89314472 -188.56745346 287.5791265 -171 272 C-169.62538166 270.81205822 -168.25044262 269.6244873 -166.875 268.4375 C-165.57996999 267.29546932 -164.2885946 266.14928707 -163 265 C-161.71996094 263.85917969 -161.71996094 263.85917969 -160.4140625 262.6953125 C-154.35185121 257.21819399 -148.4757549 251.57860596 -142.6875 245.8125 C-142.03007812 245.15967041 -141.37265625 244.50684082 -140.6953125 243.83422852 C-136.26083174 239.38575003 -132.09929184 234.75681034 -128 230 C-126.97819904 228.84360396 -125.95481185 227.68860719 -124.9296875 226.53515625 C-117.40419598 218.00691647 -110.38302855 209.18770557 -103.56884766 200.08349609 C-102.07626114 198.10127802 -100.56380724 196.13636803 -99.04296875 194.17578125 C-77.41423989 166.12540134 -59.98007919 134.90098934 -44 103.375 C-43.47937988 102.35986328 -42.95875977 101.34472656 -42.42236328 100.29882812 C-31.23927887 77.98014586 -22.2985652 54.5133476 -13.10882568 31.32196045 C-10.97000817 25.92483552 -8.82734845 20.52924861 -6.67998314 15.13551903 C-5.93928778 13.2722577 -5.20195023 11.40766268 -4.4646759 9.54304504 C-4.02298569 8.43225082 -3.58129547 7.3214566 -3.1262207 6.17700195 C-2.73827835 5.19778275 -2.350336 4.21856354 -1.95063782 3.20967102 C-1 1 -1 1 0 0 Z M-1 141 C-1.38929688 141.85078125 -1.77859375 142.7015625 -2.1796875 143.578125 C-11.12119051 163.00465353 -20.97336659 181.6673157 -32 200 C-32.46438477 200.7739209 -32.92876953 201.5478418 -33.40722656 202.34521484 C-42.60172272 217.58688721 -52.92899238 232.06682883 -64 246 C-64.76014404 246.95737061 -64.76014404 246.95737061 -65.53564453 247.93408203 C-71.66520176 255.62596704 -77.8821461 263.17375411 -84.5859375 270.375 C-86.46335136 272.41645973 -88.27187812 274.48383179 -90.07421875 276.58984375 C-94.46655575 281.62602789 -99.18281839 286.33301931 -103.9152832 291.0456543 C-105.43491668 292.5599258 -106.94912517 294.0794743 -108.46289062 295.59960938 C-113.80241915 300.94311876 -119.2311124 306.11751375 -125 311 C-126.00969102 311.87694091 -127.01884161 312.75450461 -128.02734375 313.6328125 C-134.97389517 319.5816713 -142.09587407 325.21840641 -149.43920898 330.67236328 C-150.13344971 331.1929834 -150.82769043 331.71360352 -151.54296875 332.25 C-152.16196045 332.70890625 -152.78095215 333.1678125 -153.41870117 333.640625 C-155.2629053 335.10256028 -155.2629053 335.10256028 -157 338 C-156.26136719 338.54527344 -155.52273437 339.09054687 -154.76171875 339.65234375 C-147.67937619 344.91685506 -140.76420367 350.32826529 -134 356 C-133.46648926 356.44714355 -132.93297852 356.89428711 -132.38330078 357.35498047 C-109.1123461 376.91870081 -109.1123461 376.91870081 -100.49609375 387.25390625 C-98.95764609 389.04943133 -97.32706273 390.67219012 -95.625 392.3125 C-91.8552238 396.01495876 -88.61183942 400.08476543 -85.3046875 404.19921875 C-83.19592936 406.76189602 -81.00958549 409.19573868 -78.75 411.625 C-72.33362228 418.68635156 -66.70690049 426.36479133 -61 434 C-60.11441406 435.18021729 -60.11441406 435.18021729 -59.2109375 436.38427734 C-51.94067932 446.08779023 -44.83867047 455.86341164 -38.26269531 466.05273438 C-36.92681982 468.11285482 -35.56882253 470.15745585 -34.2109375 472.203125 C-21.45494117 491.65702909 -8.3879399 513.8361803 -1 536 C-0.34 536 0.32 536 1 536 C1.31114746 535.30664551 1.62229492 534.61329102 1.94287109 533.89892578 C15.00650623 504.90005277 30.56840145 477.9460195 49 452 C49.50208984 451.28682617 50.00417969 450.57365234 50.52148438 449.83886719 C57.82055626 439.48280395 65.45985732 429.50143452 73.55126953 419.75292969 C75.61994039 417.24988676 77.64982215 414.71579624 79.6875 412.1875 C83.45604698 407.58226644 87.40788304 403.17126466 91.4453125 398.80078125 C92.77488579 397.34312979 94.10094092 395.88127646 95.37890625 394.37817383 C100.88840922 387.90948837 106.88196096 381.93194621 112.88671875 375.92797852 C114.73728967 374.07522532 116.57970076 372.21461294 118.421875 370.35351562 C125.30742299 363.43492985 132.30853851 357.02395023 140 351 C141.5271797 349.76211892 143.05205983 348.52139344 144.57421875 347.27734375 C145.94515097 346.16386359 147.31624099 345.05057768 148.6875 343.9375 C149.40099609 343.35806641 150.11449219 342.77863281 150.84960938 342.18164062 C152.56626095 340.78758129 154.283057 339.39370038 156 338 C152.05378928 333.8861896 147.82154811 330.31072266 143.375 326.75 C142.66351807 326.17499756 141.95203613 325.59999512 141.21899414 325.00756836 C138.16705154 322.54125109 135.10750111 320.08540602 132.03515625 317.64453125 C115.46890903 304.36662182 99.11752793 289.19882087 85.98828125 272.484375 C84.0050814 270.00634926 81.91248567 267.69723686 79.75 265.375 C73.97280053 259.01707684 68.86271823 252.16455297 63.71923828 245.29296875 C62.0395347 243.05272791 60.34656831 240.82301889 58.65234375 238.59375 C45.76133734 221.50061033 33.84849559 203.49556335 23.13378906 184.95556641 C21.81773823 182.68563377 20.482156 180.42756359 19.1484375 178.16796875 C12.07242625 166.08086422 5.81328194 153.74045111 0 141 C-0.33 141 -0.66 141 -1 141 Z " fill="#86B4A1" transform="translate(277,2)"/>
<path d="M0 0 C2.68032966 2.34842856 3.84095993 4.55350706 5.14477539 7.85107422 C5.53850845 8.83574677 5.93224152 9.82041931 6.33790588 10.83493042 C6.7536235 11.89745026 7.16934113 12.95997009 7.59765625 14.0546875 C8.03258896 15.14838654 8.46752167 16.24208557 8.91563416 17.368927 C10.30522929 20.86810635 11.68399121 24.3714403 13.0625 27.875 C13.9947295 30.22814726 14.92766393 32.58101537 15.86132812 34.93359375 C17.92089237 40.1267385 19.97363121 45.32252138 22.020401 50.52072144 C22.69289437 52.22274278 23.40183003 53.91067711 24.14060974 55.58499146 C26.26918632 61.5665936 23.36078799 69.06467662 21.75 75 C21.52602539 75.83321777 21.30205078 76.66643555 21.07128906 77.52490234 C16.85825487 93.02095026 11.57006701 108.06057254 6.04736328 123.13427734 C5.15641626 125.5720247 4.27654674 128.01324948 3.40234375 130.45703125 C-8.85468904 164.40249462 -26.89900384 196.78929263 -48 226 C-48.52916016 226.73879395 -49.05832031 227.47758789 -49.60351562 228.23876953 C-60.15853181 242.94213839 -71.28717048 257.14953391 -83.62109375 270.41015625 C-85.47490707 272.42834711 -87.25944284 274.47278216 -89.0390625 276.5546875 C-93.57441008 281.75422007 -98.45672374 286.60664106 -103.3425293 291.47290039 C-104.93458966 293.05959946 -106.5212299 294.65157742 -108.10742188 296.24414062 C-113.56537772 301.70598454 -119.09844231 307.01447505 -125 312 C-126.00977342 312.87684603 -127.01892731 313.75440622 -128.02734375 314.6328125 C-135.0241331 320.62469385 -142.19919013 326.29217269 -149.61499023 331.76025391 C-150.31567627 332.28409668 -151.0163623 332.80793945 -151.73828125 333.34765625 C-152.36774658 333.81179932 -152.99721191 334.27594238 -153.64575195 334.75415039 C-154.31610474 335.37084595 -154.31610474 335.37084595 -155 336 C-155 336.66 -155 337.32 -155 338 C-153.6675797 339.36108018 -153.6675797 339.36108018 -151.88671875 340.72265625 C-151.22124023 341.25648926 -150.55576172 341.79032227 -149.87011719 342.34033203 C-149.14985352 342.90864746 -148.42958984 343.47696289 -147.6875 344.0625 C-146.20700061 345.24865968 -144.72653195 346.4348577 -143.24609375 347.62109375 C-141.83093235 348.74765112 -140.41558462 349.87397448 -139 351 C-131.5688735 356.94678012 -124.45728825 363.14875128 -117.49072266 369.62695312 C-115.08356737 371.84409058 -112.6297587 374.00917897 -110.1875 376.1875 C-106.37291923 379.64634512 -102.91246863 383.20987144 -99.6015625 387.1484375 C-98.02217356 388.9743652 -96.3629303 390.63805574 -94.625 392.3125 C-90.8552238 396.01495876 -87.61183942 400.08476543 -84.3046875 404.19921875 C-82.19592936 406.76189602 -80.00958549 409.19573868 -77.75 411.625 C-71.33362228 418.68635156 -65.70690049 426.36479133 -60 434 C-59.11441406 435.18021729 -59.11441406 435.18021729 -58.2109375 436.38427734 C-50.94067932 446.08779023 -43.83867047 455.86341164 -37.26269531 466.05273438 C-35.92681982 468.11285482 -34.56882253 470.15745585 -33.2109375 472.203125 C-24.43147265 485.59250382 -17.14077345 499.68364129 -10 514 C-9.51241211 514.97259766 -9.02482422 515.94519531 -8.52246094 516.94726562 C-7.2291782 519.54118452 -5.95335938 522.14260628 -4.6875 524.75 C-4.32052002 525.49314453 -3.95354004 526.23628906 -3.57543945 527.00195312 C-1.15095264 532.10514019 0.91844935 536.74945709 -0.69506836 542.45996094 C-1.75421273 545.34811347 -2.91806803 548.17048998 -4.125 551 C-4.97009246 553.06793166 -5.8125466 555.13694349 -6.65234375 557.20703125 C-7.06081543 558.20557129 -7.46928711 559.20411133 -7.89013672 560.23291016 C-10.22672069 566.05843648 -12.13802351 572.00714852 -14 578 C-14.35723145 579.1456543 -14.35723145 579.1456543 -14.72167969 580.31445312 C-18.18107098 591.45991911 -21.30414422 602.64568976 -24 614 C-24.66 614 -25.32 614 -26 614 C-26.31001953 613.25878906 -26.62003906 612.51757812 -26.93945312 611.75390625 C-39.11124483 582.80382235 -52.66679029 554.85597913 -69 528 C-69.54221191 527.09749512 -70.08442383 526.19499023 -70.64306641 525.26513672 C-84.66265026 501.93564009 -100.48838654 479.84001944 -118 459 C-118.42539063 458.48969238 -118.85078125 457.97938477 -119.2890625 457.45361328 C-132.61613164 441.49444799 -146.824782 425.47266531 -162.6875 411.9765625 C-164.52183354 410.40870309 -166.32711383 408.81985345 -168.125 407.2109375 C-193.3634665 384.7584673 -222.06463626 367.0565654 -250.69970703 349.32861328 C-253.13990363 347.81288021 -255.57100441 346.28359707 -258 344.75 C-259.07785767 344.08713989 -259.07785767 344.08713989 -260.17749023 343.41088867 C-261.83873483 342.35399807 -263.42895046 341.18682546 -265 340 C-265 339.01 -265 338.02 -265 337 C-263.36132813 335.61230469 -263.36132813 335.61230469 -261.03125 334.171875 C-260.16185791 333.62692383 -259.29246582 333.08197266 -258.39672852 332.52050781 C-257.44080811 331.93624023 -256.4848877 331.35197266 -255.5 330.75 C-254.51765381 330.13737305 -253.53530762 329.52474609 -252.52319336 328.89355469 C-249.35459275 326.91953278 -246.17742811 324.95977425 -243 323 C-238.85093495 320.42184044 -234.7061492 317.83685351 -230.5625 315.25 C-229.54712158 314.61618408 -228.53174316 313.98236816 -227.4855957 313.3293457 C-207.60291736 300.89314472 -188.56745346 287.5791265 -171 272 C-169.62538166 270.81205822 -168.25044262 269.6244873 -166.875 268.4375 C-165.57996999 267.29546932 -164.2885946 266.14928707 -163 265 C-161.71996094 263.85917969 -161.71996094 263.85917969 -160.4140625 262.6953125 C-154.35185121 257.21819399 -148.4757549 251.57860596 -142.6875 245.8125 C-142.03007812 245.15967041 -141.37265625 244.50684082 -140.6953125 243.83422852 C-136.26083174 239.38575003 -132.09929184 234.75681034 -128 230 C-126.97819904 228.84360396 -125.95481185 227.68860719 -124.9296875 226.53515625 C-117.40419598 218.00691647 -110.38302855 209.18770557 -103.56884766 200.08349609 C-102.07626114 198.10127802 -100.56380724 196.13636803 -99.04296875 194.17578125 C-77.41423989 166.12540134 -59.98007919 134.90098934 -44 103.375 C-43.47937988 102.35986328 -42.95875977 101.34472656 -42.42236328 100.29882812 C-31.23927887 77.98014586 -22.2985652 54.5133476 -13.10882568 31.32196045 C-10.97000817 25.92483552 -8.82734845 20.52924861 -6.67998314 15.13551903 C-5.93928778 13.2722577 -5.20195023 11.40766268 -4.4646759 9.54304504 C-4.02298569 8.43225082 -3.58129547 7.3214566 -3.1262207 6.17700195 C-2.73827835 5.19778275 -2.350336 4.21856354 -1.95063782 3.20967102 C-1 1 -1 1 0 0 Z " fill="#D15F54" transform="translate(277,2)"/>
<path d="M0 0 C3.51679863 1.61805759 6.48437471 3.83010628 9.55859375 6.1484375 C20.71975824 14.31115585 32.63007717 21.24504775 44.48486328 28.33544922 C48.18400084 30.56260955 51.84558207 32.84261368 55.49609375 35.1484375 C51.75247445 38.22031866 47.87778597 41.07564544 43.9609375 43.91918945 C36.20033313 49.56054003 28.66621946 55.33560775 21.421875 61.625 C18.55775641 64.09525449 15.63444151 66.47041522 12.68359375 68.8359375 C8.66750323 72.1011937 4.99271099 75.53787065 1.390625 79.25 C-0.50396553 81.1484969 -2.46903033 82.9020003 -4.50390625 84.6484375 C-10.66073275 89.96186311 -16.23524109 95.72992862 -21.53125 101.89453125 C-23.46826958 104.10771996 -25.4541743 106.26987647 -27.45507812 108.42529297 C-33.06019096 114.47058784 -38.38758082 120.68091634 -43.50390625 127.1484375 C-44.01824219 127.79554688 -44.53257812 128.44265625 -45.0625 129.109375 C-84.64758745 179.0249818 -113.97011205 234.7615741 -137.54647827 293.76115417 C-140.97529943 302.34034031 -144.45018904 310.90069966 -147.92636108 319.46078491 C-149.53582152 323.42503874 -151.14285354 327.39027639 -152.75 331.35546875 C-153.28831796 332.68335452 -153.8266467 334.01123592 -154.36499023 335.33911133 C-154.74083252 336.26618896 -155.1166748 337.1932666 -155.50390625 338.1484375 C-156.49390625 338.1484375 -157.48390625 338.1484375 -158.50390625 338.1484375 C-159.23828125 336.3125 -159.97265625 334.4765625 -160.70703125 332.640625 C-161.18785156 331.44083008 -161.66867187 330.24103516 -162.1640625 329.00488281 C-163.23746316 326.32254863 -164.30145664 323.63671802 -165.359375 320.94824219 C-168.13097977 313.9285703 -170.99250051 306.98155423 -174.11328125 300.109375 C-184.66730844 276.60031389 -184.66730844 276.60031389 -180.37109375 264.984375 C-180.07299805 264.24026367 -179.77490234 263.49615234 -179.46777344 262.72949219 C-178.3183294 259.65149766 -177.44753281 256.5423928 -176.57421875 253.375 C-171.99798218 236.91366325 -166.26329711 221.12869932 -159.78369141 205.32080078 C-158.47101226 202.06689907 -157.22147642 198.79355895 -155.98046875 195.51171875 C-140.23471505 154.4132071 -112.95802453 115.64215945 -84.95263672 81.90136719 C-82.88396586 79.39832426 -80.8540841 76.86423374 -78.81640625 74.3359375 C-75.04785927 69.73070394 -71.09602321 65.31970216 -67.05859375 60.94921875 C-65.73459511 59.49767896 -64.41375761 58.04220243 -63.14257812 56.54418945 C-57.50231849 49.91333705 -51.34171698 43.8001662 -45.18994141 37.64916992 C-43.26694443 35.72399048 -41.35210051 33.79094719 -39.4375 31.85742188 C-32.42944521 24.81732341 -25.31250193 18.29959273 -17.50390625 12.1484375 C-16.1058112 10.97452084 -14.71217632 9.79526028 -13.32421875 8.609375 C-12.09264276 7.58049589 -10.8608778 6.55184293 -9.62890625 5.5234375 C-8.69304687 4.71326172 -8.69304687 4.71326172 -7.73828125 3.88671875 C-3.26085085 0.19331097 -3.26085085 0.19331097 0 0 Z " fill="#347BA2" transform="translate(434.50390625,339.8515625)"/>
<path d="M0 0 C2.68032966 2.34842856 3.84095993 4.55350706 5.14477539 7.85107422 C5.53850845 8.83574677 5.93224152 9.82041931 6.33790588 10.83493042 C6.7536235 11.89745026 7.16934113 12.95997009 7.59765625 14.0546875 C8.03258896 15.14838654 8.46752167 16.24208557 8.91563416 17.368927 C10.30522929 20.86810635 11.68399121 24.3714403 13.0625 27.875 C13.9947295 30.22814726 14.92766393 32.58101537 15.86132812 34.93359375 C17.92089237 40.1267385 19.97363121 45.32252138 22.020401 50.52072144 C22.69289437 52.22274278 23.40183003 53.91067711 24.14060974 55.58499146 C26.26918632 61.5665936 23.36078799 69.06467662 21.75 75 C21.41403809 76.24982666 21.41403809 76.24982666 21.07128906 77.52490234 C16.85825487 93.02095026 11.57006701 108.06057254 6.04736328 123.13427734 C5.15641626 125.5720247 4.27654674 128.01324948 3.40234375 130.45703125 C-8.85468904 164.40249462 -26.89900384 196.78929263 -48 226 C-48.52916016 226.73879395 -49.05832031 227.47758789 -49.60351562 228.23876953 C-60.15853181 242.94213839 -71.28717048 257.14953391 -83.62109375 270.41015625 C-85.47490707 272.42834711 -87.25944284 274.47278216 -89.0390625 276.5546875 C-93.57441008 281.75422007 -98.45672374 286.60664106 -103.3425293 291.47290039 C-104.93458966 293.05959946 -106.5212299 294.65157742 -108.10742188 296.24414062 C-113.56537772 301.70598454 -119.09844231 307.01447505 -125 312 C-126.00977342 312.87684603 -127.01892731 313.75440622 -128.02734375 314.6328125 C-134.24819774 319.96020156 -140.58616131 325.11056844 -147.0625 330.125 C-147.78880615 330.6936377 -148.5151123 331.26227539 -149.26342773 331.84814453 C-149.95122314 332.37520996 -150.63901855 332.90227539 -151.34765625 333.4453125 C-151.95617432 333.91469238 -152.56469238 334.38407227 -153.19165039 334.86767578 C-155.20695966 336.12959078 -156.62828903 336.76561369 -159 337 C-160.77319336 336.12646484 -160.77319336 336.12646484 -162.58984375 334.7109375 C-163.6269751 333.92614014 -163.6269751 333.92614014 -164.68505859 333.12548828 C-165.42836426 332.54782715 -166.17166992 331.97016602 -166.9375 331.375 C-173.72641121 326.28156795 -180.63825648 321.56048651 -187.875 317.125 C-189.20168701 316.31107788 -189.20168701 316.31107788 -190.55517578 315.48071289 C-196.34164656 311.95731077 -202.17894151 308.53879791 -208.11328125 305.26953125 C-208.73589844 304.85058594 -209.35851562 304.43164062 -210 304 C-210 303.34 -210 302.68 -210 302 C-208.66162109 300.84594727 -208.66162109 300.84594727 -206.7734375 299.56640625 C-206.07839111 299.08816406 -205.38334473 298.60992187 -204.66723633 298.1171875 C-203.53257935 297.34761719 -203.53257935 297.34761719 -202.375 296.5625 C-176.15531842 278.4064164 -150.43845945 256.61354247 -129.84375 232.18359375 C-128.30430908 230.36039994 -126.73982518 228.56974727 -125.15625 226.78515625 C-117.54842947 218.17761603 -110.45130585 209.27892869 -103.56884766 200.08349609 C-102.07626114 198.10127802 -100.56380724 196.13636803 -99.04296875 194.17578125 C-77.41423989 166.12540134 -59.98007919 134.90098934 -44 103.375 C-43.47937988 102.35986328 -42.95875977 101.34472656 -42.42236328 100.29882812 C-31.23927887 77.98014586 -22.2985652 54.5133476 -13.10882568 31.32196045 C-10.97000817 25.92483552 -8.82734845 20.52924861 -6.67998314 15.13551903 C-5.93928778 13.2722577 -5.20195023 11.40766268 -4.4646759 9.54304504 C-4.02298569 8.43225082 -3.58129547 7.3214566 -3.1262207 6.17700195 C-2.73827835 5.19778275 -2.350336 4.21856354 -1.95063782 3.20967102 C-1 1 -1 1 0 0 Z " fill="#FDCA6B" transform="translate(277,2)"/>
</svg>
